<svg width="274" height="48" viewBox="0 0 274 48" fill="none" xmlns="http://www.w3.org/2000/svg">
<path d="M10.3595 37.5588H2.74294L2.79192 32.6928H10.3595C12.5636 32.6928 14.4086 32.2119 15.8944 31.2501C17.3964 30.2883 18.523 28.9108 19.274 27.1177C20.0414 25.3245 20.4251 23.189 20.4251 20.7112V18.7794C20.4251 16.8558 20.2047 15.1523 19.7639 13.6689C19.3394 12.1854 18.7026 10.9384 17.8536 9.92766C17.0209 8.91696 15.9923 8.15079 14.7678 7.62914C13.5596 7.10749 12.1636 6.84666 10.5799 6.84666H2.596V1.95619H10.5799C12.9473 1.95619 15.1107 2.35558 17.0699 3.15436C19.0291 3.93683 20.719 5.06979 22.1394 6.55323C23.5762 8.03668 24.6783 9.81355 25.4457 11.8839C26.213 13.9542 26.5967 16.269 26.5967 18.8283V20.7112C26.5967 23.2705 26.213 25.5853 25.4457 27.6556C24.6783 29.7259 23.5762 31.5028 22.1394 32.9862C20.7027 34.4534 18.9883 35.5863 16.9964 36.3851C15.0209 37.1676 12.8085 37.5588 10.3595 37.5588ZM6.14712 1.95619V37.5588H0V1.95619H6.14712Z" fill="#D2872C"/>
<path d="M43.8625 38.0479C41.9033 38.0479 40.1318 37.73 38.5481 37.0942C36.9807 36.4422 35.6419 35.5374 34.5316 34.38C33.4377 33.2226 32.5969 31.8614 32.0091 30.2965C31.4213 28.7315 31.1275 27.0443 31.1275 25.2348V24.2567C31.1275 22.1864 31.4295 20.3118 32.0336 18.6327C32.6377 16.9536 33.4785 15.5191 34.5561 14.3291C35.6337 13.1228 36.9072 12.2017 38.3767 11.566C39.8461 10.9302 41.438 10.6123 43.1523 10.6123C45.0462 10.6123 46.7034 10.9302 48.1239 11.566C49.5443 12.2017 50.7199 13.0983 51.6505 14.2557C52.5975 15.3968 53.2995 16.758 53.7567 18.3393C54.2302 19.9205 54.4669 21.6648 54.4669 23.5721V26.0907H33.9929V21.8604H48.6382V21.3958C48.6055 20.3362 48.3933 19.3418 48.0014 18.4126C47.6259 17.4834 47.0463 16.7336 46.2626 16.163C45.4789 15.5925 44.434 15.3072 43.1278 15.3072C42.1482 15.3072 41.2747 15.5191 40.5073 15.9429C39.7563 16.3505 39.1277 16.9455 38.6216 17.728C38.1154 18.5104 37.7236 19.4559 37.446 20.5644C37.1848 21.6566 37.0542 22.8874 37.0542 24.2567V25.2348C37.0542 26.3923 37.2093 27.4682 37.5195 28.4626C37.846 29.4407 38.3195 30.2965 38.9399 31.0301C39.5604 31.7636 40.3114 32.3423 41.1931 32.7662C42.0747 33.1737 43.0788 33.3775 44.2054 33.3775C45.6259 33.3775 46.8912 33.0922 48.0014 32.5216C49.1117 31.9511 50.075 31.1442 50.8913 30.1009L54.0016 33.1085C53.4302 33.9399 52.6873 34.7387 51.773 35.5048C50.8587 36.2547 49.7403 36.866 48.4178 37.3388C47.1116 37.8115 45.5932 38.0479 43.8625 38.0479Z" fill="#D2872C"/>
<path d="M67.3489 32.8884L73.8389 11.1014H79.9616L70.7531 37.5588H66.9326L67.3489 32.8884ZM62.3774 11.1014L68.9898 32.9862L69.3082 37.5588H65.4877L56.2302 11.1014H62.3774Z" fill="#D2872C"/>
<path d="M105.26 25.9684H111.383C111.187 28.2995 110.534 30.378 109.424 32.2038C108.313 34.0132 106.754 35.4396 104.746 36.4829C102.738 37.5262 100.297 38.0479 97.4233 38.0479C95.2192 38.0479 93.2354 37.6566 91.4721 36.8742C89.7088 36.0754 88.1985 34.9506 86.9414 33.4997C85.6842 32.0326 84.7209 30.2639 84.0515 28.1936C83.3984 26.1233 83.0719 23.8085 83.0719 21.2491V18.2904C83.0719 15.731 83.4066 13.4162 84.076 11.3459C84.7617 9.2756 85.7413 7.50688 87.0148 6.03973C88.2883 4.55629 89.8149 3.42333 91.5946 2.64086C93.3905 1.85838 95.4069 1.46714 97.6437 1.46714C100.485 1.46714 102.885 1.98879 104.844 3.03209C106.803 4.07539 108.322 5.51808 109.399 7.36016C110.493 9.20224 111.162 11.3133 111.407 13.6933H105.285C105.122 12.161 104.762 10.8487 104.207 9.75649C103.668 8.66429 102.868 7.83291 101.807 7.26235C100.746 6.6755 99.3581 6.38207 97.6437 6.38207C96.2396 6.38207 95.0151 6.64289 93.9701 7.16454C92.9252 7.68619 92.0517 8.45237 91.3497 9.46307C90.6476 10.4738 90.117 11.7208 89.7578 13.2043C89.4149 14.6714 89.2435 16.3505 89.2435 18.2415V21.2491C89.2435 23.0423 89.3986 24.6724 89.7088 26.1396C90.0353 27.5904 90.5251 28.8375 91.1782 29.8808C91.8476 30.9241 92.6966 31.731 93.7252 32.3016C94.7538 32.8721 95.9865 33.1574 97.4233 33.1574C99.1703 33.1574 100.583 32.8803 101.66 32.326C102.754 31.7718 103.579 30.9648 104.134 29.9052C104.705 28.8293 105.081 27.5171 105.26 25.9684Z" fill="#D2872C"/>
<path d="M122.208 0V37.5588H116.33V0H122.208ZM121.179 23.352L119.269 23.3276C119.285 21.5018 119.538 19.8146 120.028 18.2659C120.534 16.7173 121.236 15.3724 122.134 14.2313C123.049 13.0739 124.142 12.1854 125.416 11.566C126.689 10.9302 128.102 10.6123 129.653 10.6123C130.959 10.6123 132.135 10.7916 133.179 11.1503C134.241 11.5089 135.155 12.0876 135.922 12.8864C136.69 13.6689 137.269 14.6959 137.661 15.9674C138.069 17.2226 138.274 18.755 138.274 20.5644V37.5588H132.347V20.5155C132.347 19.244 132.159 18.2333 131.784 17.4834C131.424 16.7336 130.894 16.1956 130.192 15.8696C129.49 15.5273 128.632 15.3561 127.62 15.3561C126.559 15.3561 125.62 15.568 124.804 15.9918C124.004 16.4157 123.334 16.9944 122.795 17.728C122.257 18.4615 121.849 19.3092 121.571 20.271C121.31 21.2328 121.179 22.2598 121.179 23.352Z" fill="#D2872C"/>
<path d="M159.188 32.2527V19.6353C159.188 18.6898 159.017 17.8747 158.674 17.19C158.331 16.5053 157.809 15.9755 157.107 15.6006C156.421 15.2257 155.556 15.0382 154.511 15.0382C153.547 15.0382 152.715 15.2012 152.013 15.5273C151.311 15.8533 150.764 16.2934 150.372 16.8477C149.98 17.4019 149.784 18.0295 149.784 18.7305H143.906C143.906 17.6872 144.159 16.6765 144.666 15.6984C145.172 14.7203 145.906 13.8482 146.87 13.082C147.833 12.3158 148.984 11.7127 150.323 11.2725C151.662 10.8324 153.164 10.6123 154.829 10.6123C156.821 10.6123 158.584 10.9465 160.119 11.6149C161.67 12.2832 162.886 13.2939 163.768 14.647C164.666 15.9837 165.115 17.6628 165.115 19.6842V31.4457C165.115 32.6521 165.197 33.7361 165.36 34.6979C165.54 35.6434 165.793 36.4666 166.119 37.1676V37.5588H160.07C159.793 36.9231 159.572 36.1161 159.409 35.1381C159.262 34.1437 159.188 33.1819 159.188 32.2527ZM160.046 21.4692L160.095 25.1126H155.858C154.764 25.1126 153.801 25.2185 152.968 25.4305C152.135 25.6261 151.441 25.9195 150.886 26.3107C150.331 26.702 149.915 27.1747 149.637 27.729C149.36 28.2832 149.221 28.9108 149.221 29.6118C149.221 30.3128 149.384 30.9567 149.711 31.5436C150.037 32.1141 150.511 32.5624 151.131 32.8884C151.768 33.2145 152.535 33.3775 153.433 33.3775C154.641 33.3775 155.694 33.133 156.592 32.6439C157.507 32.1386 158.225 31.5273 158.748 30.81C159.27 30.0764 159.548 29.3836 159.58 28.7315L161.491 31.3479C161.295 32.0163 160.96 32.7336 160.486 33.4997C160.013 34.2659 159.393 34.9995 158.625 35.7005C157.874 36.3851 156.968 36.9475 155.907 37.3877C154.862 37.8278 153.654 38.0479 152.282 38.0479C150.551 38.0479 149.009 37.7056 147.653 37.0209C146.298 36.3199 145.237 35.3826 144.47 34.2089C143.702 33.0188 143.319 31.674 143.319 30.1742C143.319 28.7723 143.58 27.5334 144.102 26.4575C144.641 25.3653 145.425 24.4524 146.453 23.7188C147.498 22.9852 148.772 22.431 150.274 22.056C151.776 21.6648 153.49 21.4692 155.417 21.4692H160.046Z" fill="#D2872C"/>
<path d="M177.605 0V37.5588H171.679V0H177.605Z" fill="#D2872C"/>
<path d="M190.389 0V37.5588H184.463V0H190.389Z" fill="#D2872C"/>
<path d="M208.537 38.0479C206.578 38.0479 204.806 37.73 203.222 37.0942C201.655 36.4422 200.316 35.5374 199.206 34.38C198.112 33.2226 197.271 31.8614 196.683 30.2965C196.096 28.7315 195.802 27.0443 195.802 25.2348V24.2567C195.802 22.1864 196.104 20.3118 196.708 18.6327C197.312 16.9536 198.153 15.5191 199.23 14.3291C200.308 13.1228 201.582 12.2017 203.051 11.566C204.52 10.9302 206.112 10.6123 207.827 10.6123C209.721 10.6123 211.378 10.9302 212.798 11.566C214.219 12.2017 215.394 13.0983 216.325 14.2557C217.272 15.3968 217.974 16.758 218.431 18.3393C218.904 19.9205 219.141 21.6648 219.141 23.5721V26.0907H198.667V21.8604H213.312V21.3958C213.28 20.3362 213.068 19.3418 212.676 18.4126C212.3 17.4834 211.721 16.7336 210.937 16.163C210.153 15.5925 209.108 15.3072 207.802 15.3072C206.822 15.3072 205.949 15.5191 205.182 15.9429C204.431 16.3505 203.802 16.9455 203.296 17.728C202.79 18.5104 202.398 19.4559 202.12 20.5644C201.859 21.6566 201.728 22.8874 201.728 24.2567V25.2348C201.728 26.3923 201.884 27.4682 202.194 28.4626C202.52 29.4407 202.994 30.2965 203.614 31.0301C204.235 31.7636 204.986 32.3423 205.867 32.7662C206.749 33.1737 207.753 33.3775 208.88 33.3775C210.3 33.3775 211.565 33.0922 212.676 32.5216C213.786 31.9511 214.749 31.1442 215.566 30.1009L218.676 33.1085C218.104 33.9399 217.362 34.7387 216.447 35.5048C215.533 36.2547 214.415 36.866 213.092 37.3388C211.786 37.8115 210.267 38.0479 208.537 38.0479Z" fill="#D2872C"/>
<path d="M229.599 16.7499V37.5588H223.696V11.1014H229.256L229.599 16.7499ZM228.546 23.352L226.635 23.3276C226.652 21.4529 226.913 19.7331 227.419 18.1681C227.941 16.6032 228.66 15.2583 229.574 14.1335C230.505 13.0087 231.615 12.1447 232.905 11.5415C234.195 10.9221 235.632 10.6123 237.215 10.6123C238.489 10.6123 239.64 10.7916 240.668 11.1503C241.713 11.4926 242.603 12.055 243.338 12.8375C244.089 13.62 244.66 14.6388 245.052 15.894C245.444 17.133 245.64 18.6572 245.64 20.4666V37.5588H239.713V20.4422C239.713 19.1707 239.526 18.1681 239.15 17.4345C238.791 16.6847 238.26 16.1549 237.558 15.8451C236.872 15.5191 236.015 15.3561 234.987 15.3561C233.974 15.3561 233.068 15.568 232.268 15.9918C231.468 16.4157 230.791 16.9944 230.235 17.728C229.697 18.4615 229.28 19.3092 228.986 20.271C228.693 21.2328 228.546 22.2598 228.546 23.352Z" fill="#D2872C"/>
<path d="M268.637 11.1014H274V36.8253C274 39.2053 273.494 41.2267 272.482 42.8895C271.469 44.5522 270.057 45.8156 268.245 46.6796C266.432 47.5599 264.334 48 261.951 48C260.938 48 259.812 47.8533 258.571 47.5599C257.346 47.2664 256.155 46.7937 254.995 46.1416C253.852 45.5059 252.897 44.6663 252.13 43.623L254.897 40.1508C255.844 41.2756 256.889 42.0988 258.032 42.6205C259.175 43.1421 260.375 43.403 261.632 43.403C262.987 43.403 264.138 43.1503 265.085 42.6449C266.049 42.1559 266.792 41.4305 267.314 40.4687C267.837 39.5069 268.098 38.3332 268.098 36.9475V17.0922L268.637 11.1014ZM250.636 24.6235V24.11C250.636 22.1049 250.881 20.2792 251.371 18.6327C251.861 16.9699 252.563 15.5436 253.477 14.3535C254.391 13.1472 255.501 12.2262 256.808 11.5904C258.114 10.9384 259.591 10.6123 261.24 10.6123C262.955 10.6123 264.416 10.9221 265.624 11.5415C266.849 12.161 267.869 13.0494 268.686 14.2068C269.502 15.3479 270.139 16.7173 270.596 18.3148C271.069 19.8961 271.42 21.6566 271.649 23.5965V25.2348C271.437 27.1258 271.077 28.8538 270.571 30.4187C270.065 31.9837 269.396 33.3367 268.563 34.4778C267.73 35.6189 266.702 36.4992 265.477 37.1187C264.269 37.7382 262.84 38.0479 261.191 38.0479C259.575 38.0479 258.114 37.7137 256.808 37.0453C255.518 36.377 254.408 35.4396 253.477 34.2333C252.563 33.027 251.861 31.6088 251.371 29.9786C250.881 28.3321 250.636 26.5471 250.636 24.6235ZM256.538 24.11V24.6235C256.538 25.8299 256.653 26.9547 256.881 27.998C257.126 29.0413 257.493 29.9623 257.983 30.7611C258.489 31.5436 259.126 32.163 259.893 32.6195C260.677 33.0596 261.6 33.2797 262.661 33.2797C264.049 33.2797 265.183 32.9862 266.065 32.3994C266.963 31.8125 267.649 31.0219 268.122 30.0275C268.612 29.0168 268.955 27.892 269.151 26.6531V22.2272C269.053 21.2654 268.849 20.3688 268.539 19.5374C268.245 18.7061 267.845 17.9806 267.339 17.3612C266.832 16.7254 266.196 16.2364 265.428 15.894C264.661 15.5354 263.755 15.3561 262.71 15.3561C261.649 15.3561 260.726 15.5843 259.942 16.0408C259.159 16.4972 258.514 17.1248 258.008 17.9236C257.518 18.7224 257.151 19.6516 256.906 20.7112C256.661 21.7708 256.538 22.9037 256.538 24.11Z" fill="#D2872C"/>
</svg>
