<svg width="274" height="48" fill="none" xmlns="http://www.w3.org/2000/svg"><path d="M10.36 37.559H2.743l.049-4.866h7.568c2.204 0 4.049-.481 5.534-1.443 1.502-.962 2.629-2.34 3.38-4.132.767-1.793 1.151-3.929 1.151-6.407V18.78c0-1.923-.22-3.627-.661-5.11-.425-1.484-1.061-2.73-1.91-3.741a7.998 7.998 0 0 0-3.086-2.299c-1.208-.522-2.604-.782-4.188-.782H2.596v-4.89h7.984c2.367 0 4.53.399 6.49 1.197a14.24 14.24 0 0 1 5.07 3.4c1.436 1.483 2.538 3.26 3.306 5.33.767 2.07 1.15 4.385 1.15 6.944v1.883c0 2.56-.383 4.874-1.15 6.945-.768 2.07-1.87 3.847-3.307 5.33-1.436 1.467-3.15 2.6-5.143 3.4-1.975.782-4.187 1.173-6.636 1.173ZM6.147 1.956V37.56H0V1.956h6.147ZM43.862 38.048c-1.959 0-3.73-.318-5.314-.954-1.567-.652-2.906-1.557-4.016-2.714-1.094-1.157-1.935-2.519-2.523-4.084-.588-1.564-.881-3.252-.881-5.061v-.978c0-2.07.302-3.945.906-5.624.604-1.68 1.444-3.114 2.522-4.304a10.838 10.838 0 0 1 3.82-2.763c1.47-.636 3.062-.954 4.776-.954 1.894 0 3.551.318 4.972.954 1.42.636 2.596 1.532 3.526 2.69.947 1.14 1.65 2.502 2.107 4.083.473 1.582.71 3.326.71 5.233v2.519H33.993v-4.23h14.645v-.465a8.264 8.264 0 0 0-.637-2.983 5.07 5.07 0 0 0-1.738-2.25c-.784-.57-1.829-.856-3.135-.856-.98 0-1.853.212-2.62.636-.752.408-1.38 1.002-1.886 1.785-.507.782-.898 1.728-1.176 2.836-.261 1.093-.392 2.323-.392 3.693v.978c0 1.157.155 2.233.465 3.228a7.71 7.71 0 0 0 1.42 2.567 6.74 6.74 0 0 0 2.254 1.736c.882.408 1.886.611 3.012.611 1.42 0 2.686-.285 3.796-.855 1.11-.57 2.074-1.378 2.89-2.421l3.11 3.008c-.57.83-1.314 1.63-2.228 2.396-.914.75-2.033 1.361-3.355 1.834-1.306.473-2.825.709-4.556.709ZM67.349 32.888l6.49-21.787h6.123L70.753 37.56h-3.82l.416-4.67Zm-4.972-21.787 6.613 21.885.318 4.573h-3.82L56.23 11.1h6.147ZM105.26 25.968h6.123c-.196 2.331-.849 4.41-1.959 6.236-1.111 1.81-2.67 3.236-4.678 4.279-2.008 1.043-4.449 1.565-7.323 1.565-2.204 0-4.188-.391-5.95-1.174A13.044 13.044 0 0 1 86.94 33.5c-1.257-1.467-2.22-3.236-2.89-5.306-.653-2.07-.98-4.386-.98-6.945V18.29c0-2.559.336-4.874 1.005-6.944.686-2.07 1.665-3.84 2.939-5.306a12.703 12.703 0 0 1 4.58-3.4c1.796-.782 3.812-1.173 6.049-1.173 2.841 0 5.241.522 7.2 1.565 1.959 1.043 3.478 2.486 4.555 4.328 1.094 1.842 1.763 3.953 2.008 6.333h-6.122c-.163-1.532-.523-2.844-1.078-3.937a5.55 5.55 0 0 0-2.4-2.494c-1.061-.586-2.449-.88-4.163-.88-1.404 0-2.629.26-3.674.783-1.045.521-1.918 1.287-2.62 2.298-.702 1.01-1.233 2.258-1.592 3.741-.343 1.467-.514 3.146-.514 5.037v3.008c0 1.793.155 3.423.465 4.89.326 1.451.816 2.698 1.47 3.742.669 1.043 1.518 1.85 2.546 2.42 1.029.571 2.262.856 3.698.856 1.747 0 3.16-.277 4.237-.831 1.094-.554 1.919-1.361 2.474-2.42.571-1.077.947-2.389 1.126-3.938ZM122.208 0v37.559h-5.878V0h5.878Zm-1.029 23.352-1.91-.024c.016-1.826.269-3.513.759-5.062.506-1.549 1.208-2.894 2.106-4.035.915-1.157 2.008-2.046 3.282-2.665 1.273-.636 2.686-.954 4.237-.954 1.306 0 2.482.18 3.526.538a6.73 6.73 0 0 1 2.743 1.736c.768.783 1.347 1.81 1.739 3.081.408 1.256.613 2.788.613 4.597V37.56h-5.927V20.516c0-1.272-.188-2.283-.563-3.033-.36-.75-.89-1.287-1.592-1.613-.702-.343-1.56-.514-2.572-.514-1.061 0-2 .212-2.816.636a5.879 5.879 0 0 0-2.009 1.736 8.024 8.024 0 0 0-1.224 2.543 11.722 11.722 0 0 0-.392 3.081ZM159.188 32.253V19.635c0-.945-.171-1.76-.514-2.445a3.598 3.598 0 0 0-1.567-1.59c-.686-.374-1.551-.562-2.596-.562-.964 0-1.796.163-2.498.49-.702.325-1.249.765-1.641 1.32a3.181 3.181 0 0 0-.588 1.883h-5.878c0-1.044.253-2.055.76-3.033.506-.978 1.24-1.85 2.204-2.616.963-.766 2.114-1.37 3.453-1.81 1.339-.44 2.841-.66 4.506-.66 1.992 0 3.755.335 5.29 1.003 1.551.668 2.767 1.679 3.649 3.032.898 1.337 1.347 3.016 1.347 5.037v11.762c0 1.206.082 2.29.245 3.252.18.945.433 1.769.759 2.47v.39h-6.049c-.277-.635-.498-1.442-.661-2.42a19.734 19.734 0 0 1-.221-2.885Zm.858-10.784.049 3.644h-4.237c-1.094 0-2.057.105-2.89.317-.833.196-1.527.49-2.082.88a3.83 3.83 0 0 0-1.249 1.419c-.277.554-.416 1.182-.416 1.883 0 .7.163 1.345.49 1.932.326.57.8 1.018 1.42 1.344.637.327 1.404.49 2.302.49 1.208 0 2.261-.245 3.159-.734.915-.505 1.633-1.117 2.156-1.834.522-.734.8-1.426.832-2.078l1.911 2.616c-.196.668-.531 1.386-1.005 2.152-.473.766-1.093 1.5-1.861 2.2-.751.685-1.657 1.247-2.718 1.688-1.045.44-2.253.66-3.625.66-1.731 0-3.273-.342-4.629-1.027-1.355-.701-2.416-1.638-3.183-2.812-.768-1.19-1.151-2.535-1.151-4.035 0-1.402.261-2.64.783-3.716a7.295 7.295 0 0 1 2.351-2.74c1.045-.733 2.319-1.287 3.821-1.662 1.502-.391 3.216-.587 5.143-.587h4.629ZM177.605 0v37.559h-5.926V0h5.926ZM190.389 0v37.559h-5.926V0h5.926ZM208.537 38.048c-1.959 0-3.731-.318-5.315-.954-1.567-.652-2.906-1.557-4.016-2.714-1.094-1.157-1.935-2.519-2.523-4.084-.587-1.564-.881-3.252-.881-5.061v-.978c0-2.07.302-3.945.906-5.624.604-1.68 1.445-3.114 2.522-4.304a10.848 10.848 0 0 1 3.821-2.763c1.469-.636 3.061-.954 4.776-.954 1.894 0 3.551.318 4.971.954 1.421.636 2.596 1.532 3.527 2.69.947 1.14 1.649 2.502 2.106 4.083.473 1.582.71 3.326.71 5.233v2.519h-20.474v-4.23h14.645v-.465a8.247 8.247 0 0 0-.636-2.983 5.072 5.072 0 0 0-1.739-2.25c-.784-.57-1.829-.856-3.135-.856-.98 0-1.853.212-2.62.636-.751.408-1.38 1.002-1.886 1.785-.506.782-.898 1.728-1.176 2.836-.261 1.093-.392 2.323-.392 3.693v.978c0 1.157.156 2.233.466 3.228.326.978.8 1.834 1.42 2.567a6.752 6.752 0 0 0 2.253 1.736c.882.408 1.886.611 3.013.611 1.42 0 2.685-.285 3.796-.855 1.11-.57 2.073-1.378 2.89-2.421l3.11 3.008c-.572.83-1.314 1.63-2.229 2.396-.914.75-2.032 1.361-3.355 1.834-1.306.473-2.825.709-4.555.709ZM229.599 16.75v20.809h-5.903V11.1h5.56l.343 5.649Zm-1.053 6.602-1.911-.024c.017-1.875.278-3.595.784-5.16.522-1.565 1.241-2.91 2.155-4.034a9.512 9.512 0 0 1 3.331-2.593c1.29-.619 2.727-.929 4.31-.929 1.274 0 2.425.18 3.453.538a6.284 6.284 0 0 1 2.67 1.688c.751.782 1.322 1.8 1.714 3.056.392 1.239.588 2.763.588 4.573v17.092h-5.927V20.442c0-1.271-.187-2.274-.563-3.008-.359-.75-.89-1.28-1.592-1.589-.686-.326-1.543-.489-2.571-.489-1.013 0-1.919.212-2.719.636a6.121 6.121 0 0 0-2.033 1.736 8.425 8.425 0 0 0-1.249 2.543 10.52 10.52 0 0 0-.44 3.081ZM268.637 11.101H274v25.724c0 2.38-.506 4.402-1.518 6.064-1.013 1.663-2.425 2.927-4.237 3.79-1.813.88-3.911 1.321-6.294 1.321-1.013 0-2.139-.147-3.38-.44a13.87 13.87 0 0 1-3.576-1.418 8.853 8.853 0 0 1-2.865-2.519l2.767-3.472c.947 1.125 1.992 1.948 3.135 2.47a8.574 8.574 0 0 0 3.6.782c1.355 0 2.506-.253 3.453-.758a5.12 5.12 0 0 0 2.229-2.176c.523-.962.784-2.136.784-3.522V17.092l.539-5.99Zm-18.001 13.522v-.513c0-2.005.245-3.83.735-5.477.49-1.663 1.192-3.09 2.106-4.28.914-1.206 2.024-2.127 3.331-2.763 1.306-.652 2.783-.978 4.432-.978 1.715 0 3.176.31 4.384.93a8.28 8.28 0 0 1 3.062 2.665c.816 1.14 1.453 2.51 1.91 4.108.473 1.581.824 3.342 1.053 5.281v1.639c-.212 1.89-.572 3.619-1.078 5.184-.506 1.565-1.175 2.918-2.008 4.059a8.567 8.567 0 0 1-3.086 2.64c-1.208.62-2.637.93-4.286.93-1.616 0-3.077-.334-4.383-1.003-1.29-.668-2.4-1.605-3.331-2.812-.914-1.206-1.616-2.624-2.106-4.254-.49-1.647-.735-3.432-.735-5.355Zm5.902-.513v.514c0 1.206.115 2.33.343 3.374.245 1.043.612 1.964 1.102 2.763a5.772 5.772 0 0 0 1.91 1.859c.784.44 1.707.66 2.768.66 1.388 0 2.522-.294 3.404-.88a5.697 5.697 0 0 0 2.057-2.372c.49-1.011.833-2.136 1.029-3.375v-4.426a10.803 10.803 0 0 0-.612-2.69 7.198 7.198 0 0 0-1.2-2.176 5.013 5.013 0 0 0-1.911-1.467c-.767-.359-1.673-.538-2.718-.538-1.061 0-1.984.228-2.768.685a5.619 5.619 0 0 0-1.934 1.883c-.49.798-.857 1.728-1.102 2.787a15.059 15.059 0 0 0-.368 3.399Z" fill="#D2872C"/></svg>